PathFileType	4	(X/Y/Z)	RBDS015static.trc
DataRate	CameraRate	NumFrames	NumMarkers	Units	OrigDataRate	OrigDataStartFrame	OrigNumFrames
150.000000	150.000000	4	48	mm	150.000000	112	150
Frame#	Time	L.Ankle			L.Ankle.Medial			L.ASIS			L.GTR			L.Heel.Bottom			L.Heel.Lateral			L.Heel.Top			L.HF			L.Iliac.Crest			L.Knee			L.Knee.Medial			L.MT1			L.MT2			L.MT5			L.PSIS			L.Shank.Bottom.Lateral			L.Shank.Bottom.Medial			L.Shank.Top.Lateral			L.Shank.Top.Medial			L.Thigh.Bottom.Lateral			L.Thigh.Bottom.Medial			L.Thigh.Top.Lateral			L.Thigh.Top.Medial			L.TT			R.Ankle			R.Ankle.Medial			R.ASIS			R.GTR			R.Heel.Bottom			R.Heel.Lateral			R.Heel.Top			R.HF			R.Iliac.Crest			R.Knee			R.Knee.Medial			R.MT1			R.MT2			R.MT5			R.PSIS			R.Shank.Bottom.Lateral			R.Shank.Bottom.Medial			R.Shank.Top.Lateral			R.Shank.Top.Medial			R.Thigh.Bottom.Lateral			R.Thigh.Bottom.Medial			R.Thigh.Top.Lateral			R.Thigh.Top.Medial			R.TT			
		X1	Y1	Z1	X2	Y2	Z2	X3	Y3	Z3	X4	Y4	Z4	X5	Y5	Z5	X6	Y6	Z6	X7	Y7	Z7	X8	Y8	Z8	X9	Y9	Z9	X10	Y10	Z10	X11	Y11	Z11	X12	Y12	Z12	X13	Y13	Z13	X14	Y14	Z14	X15	Y15	Z15	X16	Y16	Z16	X17	Y17	Z17	X18	Y18	Z18	X19	Y19	Z19	X20	Y20	Z20	X21	Y21	Z21	X22	Y22	Z22	X23	Y23	Z23	X24	Y24	Z24	X25	Y25	Z25	X26	Y26	Z26	X27	Y27	Z27	X28	Y28	Z28	X29	Y29	Z29	X30	Y30	Z30	X31	Y31	Z31	X32	Y32	Z32	X33	Y33	Z33	X34	Y34	Z34	X35	Y35	Z35	X36	Y36	Z36	X37	Y37	Z37	X38	Y38	Z38	X39	Y39	Z39	X40	Y40	Z40	X41	Y41	Z41	X42	Y42	Z42	X43	Y43	Z43	X44	Y44	Z44	X45	Y45	Z45	X46	Y46	Z46	X47	Y47	Z47	X48	Y48	Z48	

113	0.7466666666666667	699.76611328125	107.6667098999023	1032.65673828125	714.8311157226563	118.3643264770508	1120.774658203125	816.7886352539063	1081.171020507813	1094.587768554688	729.8008422851563	988.7387084960938	1049.012329101563	637.0029907226563	40.02164077758789	1081.424438476563	661.26953125	58.442626953125	1040.425170898438	642.8271484375	82.46466827392578	1082.327514648438	696.155517578125	511.6464233398438	1055.419067382813	736.3374633789063	1158.079833984375	1061.7470703125	696.8920288085938	571.4017944335938	1061.510620117188	701.9324951171875	556.3935546875	1190.46142578125	843.9537353515625	61.12667846679688	1125.621948242188	853.2344360351563	70.66314697265625	1079.480224609375	817.4349365234375	48.49949645996094	1013.092468261719	642.7245483398438	1121.938720703125	1178.414306640625	692.3153076171875	211.0914001464844	1033.266845703125	648.9793701171875	205.2202911376953	1060.357788085938	683.5396728515625	291.2790222167969	1028.242919921875	638.5520629882813	289.0906982421875	1057.0322265625	715.7057495117188	704.5595092773438	1041.001098632813	655.328125	704.0087280273438	1072.904296875	711.6668701171875	815.0066528320313	1035.580078125	650.1153564453125	814.0755615234375	1074.508911132813	753.9671630859375	476.7892456054688	1102.71630859375	692.4542846679688	115.032958984375	1412.955444335938	716.934326171875	117.7714767456055	1326.6826171875	836.7471313476563	1074.75390625	1322.983764648438	757.3197631835938	989.3826293945313	1380.759155273438	633.0582885742188	41.20890808105469	1370.205200195313	660.7401733398438	61.88652801513672	1411.32568359375	641.550537109375	87.87863922119141	1370.32470703125	717.0010375976563	511.4852600097656	1375.929443359375	755.8810424804688	1157.693237304688	1368.443481445313	718.7938842773438	577.0068969726563	1369.049194335938	733.6651611328125	550.9488525390625	1242.465454101563	843.1942749023438	59.58339691162109	1326.516357421875	851.3074340820313	72.80332946777344	1375.462280273438	808.2913818359375	50.08606338500977	1441.25927734375	648.7731323242188	1121.745239257813	1269.944702148438	702.0591430664063	209.0021362304688	1408.89013671875	653.8798217773438	206.2787475585938	1381.337036132813	695.086181640625	290.3102111816406	1410.347412109375	649.1958618164063	286.6870422363281	1382.323486328125	732.2518920898438	725.6473388671875	1387.7939453125	669.201904296875	722.3162231445313	1349.450927734375	720.3677978515625	834.97705078125	1390.728515625	662.3855590820313	832.0028686523438	1351.742065429688	777.8976440429688	486.3751525878906	1330.278686523438	
114	0.7533333333333334	699.7666625976563	107.6826095581055	1032.656616210938	714.8389282226563	118.3571472167969	1120.784912109375	816.8450317382813	1081.151245117188	1094.595825195313	729.85693359375	988.739990234375	1049.0087890625	636.9961547851563	40.0224609375	1081.432373046875	661.27587890625	58.44507217407227	1040.43359375	642.8257446289063	82.46626281738281	1082.340209960938	696.1336669921875	511.6522521972656	1055.433471679688	736.4176635742188	1158.06982421875	1061.744750976563	696.8588256835938	571.4034423828125	1061.525390625	701.9205322265625	556.402099609375	1190.484375	843.9498901367188	61.11561584472656	1125.623413085938	853.235595703125	70.65842437744141	1079.477661132813	817.4443969726563	48.49672698974609	1013.084716796875	642.795166015625	1121.944946289063	1178.421020507813	692.3114624023438	211.0936126708984	1033.279174804688	648.9779052734375	205.2233428955078	1060.373413085938	683.3512573242188	291.3989868164063	1028.170532226563	638.5505981445313	289.0994262695313	1057.034545898438	715.7029418945313	704.5587768554688	1041.010986328125	655.3224487304688	704.019287109375	1072.914916992188	711.69140625	815.007568359375	1035.587524414063	650.1312255859375	814.0896606445313	1074.52392578125	753.9534301757813	476.7939453125	1102.72607421875	692.444091796875	115.0338134765625	1412.960205078125	716.9366455078125	117.7770080566406	1326.690307617188	836.8092041015625	1074.757934570313	1322.990600585938	757.3796997070313	989.3778076171875	1380.758544921875	633.0479125976563	41.22135162353516	1370.208129882813	660.7413940429688	61.88653182983398	1411.327392578125	641.5552368164063	87.88462066650391	1370.330200195313	717.025634765625	511.49853515625	1375.93359375	755.9442138671875	1157.70263671875	1368.436401367188	718.801513671875	577.0087890625	1369.0439453125	733.6990966796875	550.9581298828125	1242.4814453125	843.1932983398438	59.57775115966797	1326.512451171875	851.3046875	72.79344177246094	1375.470336914063	808.2953491210938	50.08551025390625	1441.269409179688	648.8471069335938	1121.748779296875	1269.948974609375	702.0665283203125	209.0085144042969	1408.894653320313	653.8925170898438	206.2897491455078	1381.344848632813	695.10205078125	290.3202819824219	1410.35498046875	649.2088012695313	286.6874694824219	1382.333374023438	732.2888793945313	725.6596069335938	1387.802124023438	669.2335205078125	722.3296508789063	1349.461669921875	720.4052734375	834.9815673828125	1390.735961914063	662.4244384765625	832.020263671875	1351.744018554688	777.9121704101563	486.3699340820313	1330.29052734375	
115	0.76	699.767822265625	107.6829986572266	1032.668090820313	714.8430786132813	118.3581085205078	1120.779174804688	816.9076538085938	1081.135131835938	1094.596801757813	729.9113159179688	988.7384643554688	1049.019775390625	636.9989013671875	40.03831100463867	1081.434448242188	661.2827758789063	58.46548461914063	1040.434692382813	642.8168334960938	82.48041534423828	1082.34130859375	696.1109008789063	511.6525573730469	1055.441650390625	736.4934692382813	1158.072265625	1061.73583984375	696.8367309570313	571.4015502929688	1061.536499023438	701.9187622070313	556.3968505859375	1190.495361328125	843.9593505859375	61.1162109375	1125.622924804688	853.2496948242188	70.65763092041016	1079.474853515625	817.4412841796875	48.49794006347656	1013.085571289063	642.8748168945313	1121.953002929688	1178.42333984375	692.3106079101563	211.1017761230469	1033.283569335938	648.9759521484375	205.2322082519531	1060.378784179688	683.3494262695313	291.4073791503906	1028.178588867188	638.5479736328125	289.098388671875	1057.054809570313	715.6981811523438	704.5594482421875	1041.0205078125	655.3289794921875	704.0376586914063	1072.92333984375	711.712158203125	815.0103759765625	1035.594116210938	650.1602172851563	814.0997924804688	1074.530395507813	753.9309692382813	476.7909851074219	1102.72802734375	692.4613647460938	115.0388793945313	1412.950561523438	716.94287109375	117.7838516235352	1326.691284179688	836.880859375	1074.75732421875	1322.98974609375	757.4466552734375	989.3919677734375	1380.779052734375	633.052978515625	41.21908187866211	1370.204345703125	660.7423706054688	61.88901901245117	1411.321899414063	641.5537719726563	87.89424896240234	1370.329345703125	717.0508422851563	511.5033264160156	1375.927612304688	756.0110473632813	1157.707397460938	1368.441040039063	718.8255004882813	577.0189208984375	1369.058715820313	733.6970825195313	550.971435546875	1242.475830078125	843.2042846679688	59.5816535949707	1326.52099609375	851.3228149414063	72.80206298828125	1375.466064453125	808.2921142578125	50.08842086791992	1441.267944335938	648.9042358398438	1121.761108398438	1269.953735351563	702.076171875	209.0147094726563	1408.894287109375	653.8986206054688	206.3018798828125	1381.340087890625	695.1151123046875	290.3227233886719	1410.358642578125	649.22216796875	286.701171875	1382.338012695313	732.323486328125	725.6659545898438	1387.802124023438	669.26953125	722.3406372070313	1349.47119140625	720.4515380859375	835.005615234375	1390.743408203125	662.466796875	832.0413208007813	1351.760498046875	777.919189453125	486.3659362792969	1330.295776367188	
116	0.7666666666666667	699.7696533203125	107.6891555786133	1032.663696289063	714.8470458984375	118.3659973144531	1120.789428710938	816.9692993164063	1081.12548828125	1094.601928710938	729.9593505859375	988.737548828125	1049.032836914063	637.005859375	40.04195404052734	1081.436157226563	661.2907104492188	58.45498657226563	1040.44287109375	642.826416015625	82.48158264160156	1082.345092773438	696.1021118164063	511.66162109375	1055.46044921875	736.5780639648438	1158.063232421875	1061.7333984375	696.820068359375	571.4129638671875	1061.558837890625	701.8901977539063	556.408935546875	1190.510498046875	843.9628295898438	61.11548233032227	1125.621337890625	853.2462158203125	70.65326690673828	1079.4736328125	817.4397583007813	48.49797058105469	1013.08935546875	642.941162109375	1121.959838867188	1178.425415039063	692.3106689453125	211.0943145751953	1033.289794921875	648.9759521484375	205.2359466552734	1060.388671875	683.34765625	291.41064453125	1028.191650390625	638.5438232421875	289.1088256835938	1057.072143554688	715.700927734375	704.556884765625	1041.037963867188	655.3314208984375	704.0476684570313	1072.937744140625	711.7391357421875	815.013427734375	1035.5986328125	650.1756591796875	814.1220703125	1074.548461914063	753.9197998046875	476.8000183105469	1102.733764648438	692.4526977539063	115.0465545654297	1412.966064453125	716.9451293945313	117.7860412597656	1326.694213867188	836.9568481445313	1074.749877929688	1322.982421875	757.60888671875	989.4467163085938	1381.135986328125	633.0582885742188	41.21927261352539	1370.2060546875	660.7445678710938	61.90188217163086	1411.327880859375	641.5552978515625	87.89424896240234	1370.331420898438	717.0584716796875	511.499267578125	1375.937255859375	756.0808715820313	1157.732666015625	1368.447021484375	718.84765625	577.0281982421875	1369.071044921875	733.713134765625	550.9722290039063	1242.495483398438	843.2081298828125	59.57693862915039	1326.519897460938	851.3192749023438	72.81053924560547	1375.462890625	808.2982177734375	50.08647918701172	1441.268676757813	648.9733276367188	1121.767211914063	1269.971435546875	702.0821533203125	209.0237731933594	1408.893920898438	653.9138793945313	206.3095703125	1381.3583984375	695.1275634765625	290.3317260742188	1410.374633789063	649.231689453125	286.7107849121094	1382.3515625	732.3646240234375	725.6720581054688	1387.812133789063	669.305908203125	722.3507080078125	1349.482666015625	720.502685546875	835.0103759765625	1390.767578125	662.5026245117188	832.0570068359375	1351.774169921875	777.931640625	486.3687438964844	1330.294677734375	
